<svg xmlns="http://www.w3.org/2000/svg" width="1024" height="1024" viewBox="0 0 1024 1024">

  <!-- Background: same light gray as HomeAI / ShutterPhil -->
  <rect width="1024" height="1024" fill="#EAEAEF"/>

  <defs>
    <clipPath id="globeClip">
      <circle cx="512" cy="400" r="200"/>
    </clipPath>
  </defs>

  <!-- ── Globe (horizontally centered) ──────────────────────── -->
  <circle cx="512" cy="400" r="200" fill="#B8965A"/>

  <!-- White grid lines clipped to globe -->
  <g clip-path="url(#globeClip)" stroke="#EAEAEF" stroke-width="16" fill="none">
    <line x1="312" y1="290" x2="712" y2="290"/>
    <line x1="312" y1="400" x2="712" y2="400"/>
    <line x1="312" y1="510" x2="712" y2="510"/>
    <ellipse cx="512" cy="400" rx="100" ry="200"/>
  </g>

  <!-- Globe outline ring -->
  <circle cx="512" cy="400" r="200" fill="none" stroke="#EAEAEF" stroke-width="16"/>

  <!-- ── Plane overlapping upper-right of globe ─────────────── -->
  <g transform="translate(676, 228) rotate(45)" fill="#B8965A">
    <ellipse cx="0" cy="0" rx="14" ry="80"/>
    <polygon points="0,-15  -98,44  -12,24  12,24  98,44"/>
    <polygon points="-5,57  -40,88  -5,72"/>
    <polygon points=" 5,57   40,88   5,72"/>
  </g>

  <!-- ── App name — centered under globe, larger ───────────── -->
  <text x="512" y="840"
        font-family="-apple-system, 'Helvetica Neue', Arial, sans-serif"
        font-weight="300"
        font-size="72"
        letter-spacing="-1"
        fill="#3C3C3E"
        text-anchor="middle">SmartTraveler</text>

</svg>
